<svg xmlns="http://www.w3.org/2000/svg" viewBox="0 0 64 64" width="40px" height="80px">
  <path d="M32,2c-5.5,0-10,4.5-10,10s4.5,10,10,10s10-4.5,10-10S37.5,2,32,2z"/>
  <path d="M42,25H22c-1.7,0-3.2,1.1-3.8,2.7L12.5,39c-0.9,2.5,0.4,5.3,3,6.2c2.5,0.9,5.3-0.4,6.2-3l2.5-7.1h16.6l2.5,7.1
    c0.9,2.5,3.7,3.8,6.2,3c2.5-0.9,3.8-3.7,3-6.2l-5.7-15.3C45.2,26.1,43.7,25,42,25z"/>
  <path d="M23,41c-0.5,0-1,0.2-1.4,0.6L16.2,47c-1.5,1.5-1.5,4,0,5.5c1.5,1.5,4,1.5,5.5,0l4.8-4.8c1.5-1.5,1.5-4,0-5.5
    C24,41.2,23.5,41,23,41z"/>
  <path d="M41,41c-0.5,0-1,0.2-1.4,0.6c-1.5,1.5-1.5,4,0,5.5l4.8,4.8c1.5,1.5,4,1.5,5.5,0c1.5-1.5,1.5-4,0-5.5l-4.8-4.8
    C42,41.2,41.5,41,41,41z"/>
</svg>